<?xml version="1.0" encoding="UTF-8" standalone="no"?>
<!-- Created with Inkscape (http://www.inkscape.org/) -->

<svg
   width="34.409702mm"
   height="33.866707mm"
   viewBox="0 0 34.409702 33.866706"
   version="1.1"
   id="svg1"
   xml:space="preserve"
   inkscape:version="1.4.2 (f4327f4, 2025-05-13)"
   sodipodi:docname="newfavicon.svg"
   xmlns:inkscape="http://www.inkscape.org/namespaces/inkscape"
   xmlns:sodipodi="http://sodipodi.sourceforge.net/DTD/sodipodi-0.dtd"
   xmlns="http://www.w3.org/2000/svg"
   xmlns:svg="http://www.w3.org/2000/svg"><sodipodi:namedview
     id="namedview1"
     pagecolor="#ffffff"
     bordercolor="#000000"
     borderopacity="0.25"
     inkscape:showpageshadow="2"
     inkscape:pageopacity="0.0"
     inkscape:pagecheckerboard="0"
     inkscape:deskcolor="#d1d1d1"
     inkscape:document-units="mm"
     inkscape:zoom="1.3772587"
     inkscape:cx="10.52816"
     inkscape:cy="173.89616"
     inkscape:window-width="1920"
     inkscape:window-height="991"
     inkscape:window-x="-9"
     inkscape:window-y="-9"
     inkscape:window-maximized="1"
     inkscape:current-layer="layer1" /><defs
     id="defs1" /><g
     inkscape:label="Layer 1"
     inkscape:groupmode="layer"
     id="layer1"
     transform="translate(-53.123747,-89.217242)"><path
       style="fill:#5044e5;fill-opacity:1"
       d="m 59.02525,122.09172 c -0.424278,-0.5457 -1.925685,-2.5066 -3.336459,-4.35755 l -2.565044,-3.36536 0.07308,-4.01857 0.07308,-4.01857 0.926042,1.31389 c 0.509323,0.72263 2.526554,3.42032 4.482735,5.99486 l 3.556694,4.68099 h 4.990556 4.990555 l 4.472791,-4.43177 4.47279,-4.43177 -2.943431,-3.77031 -2.943431,-3.77032 h -1.140204 c -1.051421,0 -1.310699,0.15638 -3.329734,2.00821 -1.20424,1.10451 -2.460598,2.19185 -2.791905,2.41631 -0.580934,0.39357 -0.653506,0.3527 -2.038593,-1.14831 -0.789918,-0.85603 -1.441582,-1.6927 -1.448143,-1.85926 -0.0066,-0.16657 1.446587,-1.62578 3.229217,-3.24268 l 3.241146,-2.939828 3.423494,0.0677 3.423494,0.0677 4.838617,6.217698 c 2.66124,3.41974 4.841371,6.29634 4.844736,6.39246 0.0034,0.0961 -2.990856,3.10244 -6.653822,6.68073 l -6.65994,6.50598 h -7.208452 -7.208453 z m -0.656865,-13.18524 c -2.658641,-3.43196 -4.867426,-6.33052 -4.908412,-6.44126 -0.04098,-0.11074 2.951278,-3.136828 6.649473,-6.724658 l 6.723992,-6.52332 h 7.163727 7.163726 l 0.67444,0.8599 c 0.370942,0.47294 1.804768,2.34252 3.186279,4.15462 l 2.51184,3.29472 v 4.081958 4.08197 l -4.431771,-5.854238 -4.43177,-5.85423 -4.872409,-0.001 -4.872409,-0.001 -4.388008,4.29947 c -2.413404,2.364718 -4.388007,4.445028 -4.388007,4.622908 0,0.17789 1.247612,1.93406 2.77247,3.90261 l 2.772471,3.57917 h 1.1133 c 1.023877,0 1.33215,-0.19138 3.837996,-2.38262 1.498584,-1.31044 2.796736,-2.35224 2.884782,-2.3151 0.08805,0.0371 0.839432,0.83272 1.669746,1.76797 1.43576,1.61722 1.486409,1.72167 1.034656,2.13382 -0.261253,0.23834 -1.739068,1.5865 -3.284034,2.99589 l -2.809029,2.56254 h -3.469578 -3.469578 z"
       id="path1" /></g></svg>
