<?xml version="1.0" encoding="UTF-8" standalone="no"?>
<!-- Created with Inkscape (http://www.inkscape.org/) -->

<svg
   width="53.280766mm"
   height="11.11253mm"
   viewBox="0 0 53.280766 11.11253"
   version="1.1"
   id="svg1"
   xml:space="preserve"
   inkscape:version="1.4.2 (f4327f4, 2025-05-13)"
   sodipodi:docname="newlogofinal.svg"
   xmlns:inkscape="http://www.inkscape.org/namespaces/inkscape"
   xmlns:sodipodi="http://sodipodi.sourceforge.net/DTD/sodipodi-0.dtd"
   xmlns="http://www.w3.org/2000/svg"
   xmlns:svg="http://www.w3.org/2000/svg"><sodipodi:namedview
     id="namedview1"
     pagecolor="#ffffff"
     bordercolor="#000000"
     borderopacity="0.25"
     inkscape:showpageshadow="2"
     inkscape:pageopacity="0.0"
     inkscape:pagecheckerboard="0"
     inkscape:deskcolor="#d1d1d1"
     inkscape:document-units="mm"
     inkscape:zoom="0.97386896"
     inkscape:cx="266.46295"
     inkscape:cy="-0.51341609"
     inkscape:window-width="1920"
     inkscape:window-height="991"
     inkscape:window-x="-9"
     inkscape:window-y="-9"
     inkscape:window-maximized="1"
     inkscape:current-layer="layer1" /><defs
     id="defs1" /><g
     inkscape:label="Layer 1"
     inkscape:groupmode="layer"
     id="layer1"
     transform="translate(-0.74259073,-0.73784506)"><path
       style="fill:#5044e5;fill-opacity:1"
       d="M 1.7863511,10.388505 C 0.77470813,9.0485951 0.68928513,8.8119551 0.76237513,7.5518051 l 0.07974,-1.37483 1.41410697,1.91066 1.414108,1.91065 h 1.505347 c 1.465591,0 1.541536,-0.0367 2.875561,-1.38906 l 1.370212,-1.38906 -0.850084,-1.11458 c -0.467546,-0.61302 -0.971785,-1.11904 -1.12053,-1.12448 -0.148745,-0.005 -0.698005,0.34253 -1.220579,0.77328 l -0.950134,0.78318 -0.563103,-0.59939 -0.563102,-0.5994 1.013165,-0.98933 c 0.821906,-0.80257 1.230469,-0.99959 2.164305,-1.04368 1.138656,-0.0538 1.169673,-0.0315 2.8599069,2.05158 l 1.708765,2.10592 -2.2996159,2.19355 -2.299616,2.1935599 h -2.205381 -2.20538 z M 14.90604,9.2498551 c -0.240835,-0.26612 -0.437882,-0.80191 -0.437882,-1.19063 0,-0.5775 0.120983,-0.70677 0.661458,-0.70677 0.411574,0 0.661459,0.14993 0.661459,0.39687 0,0.24981 0.251929,0.39688 0.67986,0.39688 0.553703,0 0.664171,-0.11047 0.595313,-0.59531 -0.06265,-0.4411 -0.290175,-0.61819 -0.878298,-0.6836 -1.198955,-0.13335 -1.719792,-0.74764 -1.719792,-2.02838 0,-1.40313 0.594717,-1.98438 2.030347,-1.98438 1.237045,0 2.028087,0.68172 1.893519,1.63183 -0.117623,0.83047 -1.278033,1.04716 -1.278033,0.23866 0,-0.40769 -0.168979,-0.54757 -0.661458,-0.54757 -0.529167,0 -0.661458,0.13229 -0.661458,0.66146 0,0.57372 0.117386,0.66146 0.885034,0.66146 1.207266,0 1.760799,0.67985 1.760799,2.16263 0,0.82162 -0.151166,1.33174 -0.483854,1.63282 -0.667807,0.60435 -2.483263,0.57696 -3.047014,-0.046 z m 4.528287,0.0208 c -0.297571,-0.33811 -0.438888,-1.26606 -0.52381,-3.43958 l -0.116298,-2.97657 h 0.854706 0.854706 l -0.145794,2.64584 -0.145793,2.64583 h 0.735306 0.735306 l -0.127406,-2.64583 -0.127405,-2.64584 h 0.885781 0.885782 v 2.8643 c 0,2.65192 -0.04541,2.90695 -0.612365,3.43958 -0.775301,0.72836 -2.554717,0.79172 -3.152716,0.11227 z m 4.42654,-2.96473 v -3.45142 h 1.638642 c 1.934085,0 2.462395,0.48526 2.462395,2.26171 0,1.28594 -0.82443,2.23621 -1.940078,2.23621 -0.676331,0 -0.711482,0.0613 -0.644406,1.12448 0.06777,1.0741 0.03539,1.12797 -0.722803,1.20245 l -0.79375,0.078 z m 2.513541,-1.20246 c 0,-0.74965 -0.100793,-0.92604 -0.529166,-0.92604 -0.428373,0 -0.529167,0.17639 -0.529167,0.92604 0,0.74965 0.100794,0.92604 0.529167,0.92604 0.428373,0 0.529166,-0.17639 0.529166,-0.92604 z m 1.984376,1.19063 v -3.43959 h 1.78593 1.785942 v 0.82757 c 0,0.81731 -0.0131,0.82547 -1.058332,0.65833 -0.99875,-0.15971 -1.05834,-0.13182 -1.05834,0.49535 0,0.56204 0.12248,0.66459 0.79375,0.66459 0.67028,0 0.79375,0.10289 0.79375,0.66145 0,0.55857 -0.12347,0.66146 -0.79375,0.66146 -0.67027,0 -0.79375,0.1029 -0.79375,0.66146 0,0.59531 0.10584,0.66146 1.05834,0.66146 0.99954,0 1.058332,0.0441 1.058332,0.79375 v 0.79375 h -1.785942 -1.78593 z m 3.968752,1.5e-4 v -3.43951 l 1.61264,-1.1e-4 c 1.22637,-9e-5 1.71752,0.11578 2.05052,0.48374 0.49387,0.54572 0.6048,2.68297 0.16223,3.12554 -0.19115,0.19115 -0.14408,0.6632 0.15353,1.5398 0.49,1.44324 0.30504,1.81511 -0.83784,1.68451 -0.69168,-0.079 -0.75351,-0.16989 -0.68933,-1.01287 0.08,-1.05107 -0.25959,-1.74716 -0.71507,-1.46565 -0.20326,0.12562 -0.24777,0.58372 -0.13184,1.35681 l 0.17503,1.16717 -0.88994,4e-5 -0.88993,3e-5 z m 2.77812,-1.32307 c 0,-0.67028 -0.10289,-0.79375 -0.66146,-0.79375 -0.55856,0 -0.66146,0.12347 -0.66146,0.79375 0,0.67028 0.1029,0.79375 0.66146,0.79375 0.55857,0 0.66146,-0.12347 0.66146,-0.79375 z m 3.10769,2.01409 0.14027,-2.74841 -0.69794,0.13342 c -0.63344,0.12109 -0.69794,0.0572 -0.69794,-0.69117 v -0.8246 h 2.13425 2.13424 l -0.0837,0.72761 c -0.0702,0.60992 -0.20711,0.72547 -0.84662,0.71443 l -0.7629,-0.0132 0.13908,2.72515 0.13909,2.72515 h -0.86904 -0.86904 z m 3.68019,2.26456 c -0.34288,-0.37888 -0.43788,-1.03012 -0.43788,-3.00171 0,-2.98642 0.25949,-3.39361 2.16264,-3.39361 1.80298,0 2.07069,0.44338 2.07069,3.42939 0,2.19061 -0.0627,2.51607 -0.56965,2.95572 -0.76343,0.66213 -2.63047,0.66803 -3.2258,0.0102 z m 2.20795,-3.08803 c 0,-1.94027 -0.0147,-1.98437 -0.66145,-1.98437 -0.64676,0 -0.66146,0.0441 -0.66146,1.98437 0,1.94028 0.0147,1.98438 0.66146,1.98438 0.64676,0 0.66145,-0.0441 0.66145,-1.98438 z m 2.42738,2.95951 c -0.50299,-0.5354 -0.57529,-0.91266 -0.57529,-3.0017 0,-2.84458 0.27853,-3.2651 2.16264,-3.2651 1.81056,0 2.07069,0.43788 2.07069,3.48556 0,2.10323 -0.0797,2.58995 -0.48385,2.95573 -0.7385,0.66833 -2.47193,0.57304 -3.17419,-0.17449 z m 2.33513,-2.95951 c 0,-1.94027 -0.0147,-1.98437 -0.66146,-1.98437 -0.64676,0 -0.66146,0.0441 -0.66146,1.98437 0,1.94028 0.0147,1.98438 0.66146,1.98438 0.64676,0 0.66146,-0.0441 0.66146,-1.98438 z m 1.83132,3.51836 c -0.0114,-0.0433 -0.0412,-1.59684 -0.0661,-3.45225 l -0.0454,-3.37348 0.85273,4e-5 0.85273,4e-5 -0.059,2.63414 -0.059,2.63414 0.92604,0.0778 c 0.79063,0.0665 0.92604,0.17456 0.92604,0.7393 0,0.6266 -0.0872,0.66561 -1.65365,0.74023 -0.9095,0.0433 -1.66298,0.0433 -1.6744,0 z M 2.2957231,7.1752351 c -0.880034,-1.1161 -1.56710897,-2.09837 -1.52683397,-2.18281 0.04028,-0.0845 1.03427697,-1.07628 2.20889197,-2.20406 l 2.135664,-2.05052004 h 2.263931 2.263931 L 10.746432,2.1702851 c 1.022156,1.32491 1.099062,1.53788 1.024363,2.8367 l -0.08076,1.40425 -1.414106,-1.91065 -1.4141079,-1.91066 h -1.638547 c -1.612928,0 -1.658626,0.0204 -2.922744,1.3038 l -1.284197,1.3038 0.853355,1.07745 c 0.986346,1.24536 1.528775,1.33952 2.39639,0.41599 0.766524,-0.81593 1.063967,-0.81911 1.646421,-0.0176 0.449699,0.6188 0.440254,0.63993 -0.705987,1.57919 -0.910311,0.74593 -1.394356,0.95199 -2.236254,0.95199 -1.023763,0 -1.149984,-0.0958 -2.674533,-2.02927 z"
       id="path181" /></g></svg>
